<svg width="304" height="40" viewBox="0 0 304 40" fill="none" xmlns="http://www.w3.org/2000/svg">
<rect x="-1" y="1" width="244" height="38" rx="5" transform="matrix(-1 0 0 1 244 0)" fill="white" stroke="#B8FFEC" stroke-width="2"/>
<path d="M18.3776 26C18.2176 26 18.1376 25.92 18.1376 25.76V15.04C18.1376 14.88 18.2176 14.8 18.3776 14.8H24.4576C25.3749 14.8 26.0683 15.04 26.5376 15.52C27.0176 15.9893 27.2576 16.6827 27.2576 17.6V23.2C27.2576 24.1173 27.0176 24.816 26.5376 25.296C26.0683 25.7653 25.3749 26 24.4576 26H18.3776ZM24.3776 24.64C24.8149 24.64 25.1509 24.5227 25.3856 24.288C25.6203 24.0533 25.7376 23.7173 25.7376 23.28V17.52C25.7376 17.0827 25.6203 16.7467 25.3856 16.512C25.1509 16.2773 24.8149 16.16 24.3776 16.16H19.6576V24.64H24.3776ZM33.9376 17.76C34.7803 17.76 35.4043 17.9627 35.8096 18.368C36.2149 18.7733 36.4176 19.3973 36.4176 20.24V22.16C36.4176 22.32 36.3376 22.4 36.1776 22.4H30.8976V23.6C30.8976 24.048 30.9829 24.3627 31.1536 24.544C31.3349 24.7147 31.6496 24.8 32.0976 24.8H33.9376C34.5776 24.8 34.8976 24.48 34.8976 23.84V23.52C34.8976 23.36 34.9776 23.28 35.1376 23.28H36.0976C36.2576 23.28 36.3376 23.36 36.3376 23.52V23.84C36.3376 24.608 36.1456 25.1733 35.7616 25.536C35.3776 25.8987 34.7696 26.08 33.9376 26.08H31.9376C31.0949 26.08 30.4709 25.8773 30.0656 25.472C29.6603 25.0667 29.4576 24.4427 29.4576 23.6V20.24C29.4576 19.3973 29.6603 18.7733 30.0656 18.368C30.4709 17.9627 31.0949 17.76 31.9376 17.76H33.9376ZM34.9776 21.12V20.24C34.9776 19.792 34.8869 19.4827 34.7056 19.312C34.5349 19.1307 34.2256 19.04 33.7776 19.04H32.0976C31.6496 19.04 31.3349 19.1307 31.1536 19.312C30.9829 19.4827 30.8976 19.792 30.8976 20.24V21.12H34.9776ZM40.3863 26C40.2157 26 40.0983 25.92 40.0343 25.76L37.2023 18.16C37.1917 18.1387 37.1863 18.1067 37.1863 18.064C37.1863 17.9147 37.2823 17.84 37.4743 17.84H38.3223C38.493 17.84 38.6103 17.92 38.6743 18.08L40.0503 21.84L40.9303 24.256H41.0103L41.8903 21.84L43.2663 18.08C43.3303 17.92 43.4477 17.84 43.6183 17.84H44.5143C44.6637 17.84 44.7383 17.9147 44.7383 18.064C44.7383 18.1173 44.733 18.16 44.7223 18.192L41.9063 25.76C41.8423 25.92 41.725 26 41.5543 26H40.3863ZM46.2251 26C46.0651 26 45.9851 25.92 45.9851 25.76V18.08C45.9851 17.92 46.0651 17.84 46.2251 17.84H47.1851C47.3451 17.84 47.4251 17.92 47.4251 18.08V25.76C47.4251 25.92 47.3451 26 47.1851 26H46.2251ZM46.1451 16.88C45.9851 16.88 45.9051 16.8 45.9051 16.64V15.6C45.9051 15.44 45.9851 15.36 46.1451 15.36H47.2651C47.4251 15.36 47.5051 15.44 47.5051 15.6V16.64C47.5051 16.8 47.4251 16.88 47.2651 16.88H46.1451ZM52.1813 26.08C51.3387 26.08 50.7147 25.8773 50.3093 25.472C49.904 25.0667 49.7013 24.4427 49.7013 23.6V20.24C49.7013 19.3973 49.904 18.7733 50.3093 18.368C50.7147 17.9627 51.3387 17.76 52.1813 17.76H54.0213C54.864 17.76 55.488 17.9627 55.8933 18.368C56.2987 18.7733 56.5013 19.3973 56.5013 20.24V20.56C56.5013 20.72 56.4213 20.8 56.2613 20.8H55.3013C55.1413 20.8 55.0613 20.72 55.0613 20.56V20.24C55.0613 19.792 54.9707 19.4827 54.7893 19.312C54.6187 19.1307 54.3093 19.04 53.8613 19.04H52.3413C51.8933 19.04 51.5787 19.1307 51.3973 19.312C51.2267 19.4827 51.1413 19.792 51.1413 20.24V23.6C51.1413 24.048 51.2267 24.3627 51.3973 24.544C51.5787 24.7147 51.8933 24.8 52.3413 24.8H53.8613C54.3093 24.8 54.6187 24.7147 54.7893 24.544C54.9707 24.3627 55.0613 24.048 55.0613 23.6V23.28C55.0613 23.12 55.1413 23.04 55.3013 23.04H56.2613C56.4213 23.04 56.5013 23.12 56.5013 23.28V23.6C56.5013 24.4427 56.2987 25.0667 55.8933 25.472C55.488 25.8773 54.864 26.08 54.0213 26.08H52.1813ZM62.7782 17.76C63.6209 17.76 64.2449 17.9627 64.6502 18.368C65.0556 18.7733 65.2582 19.3973 65.2582 20.24V22.16C65.2582 22.32 65.1782 22.4 65.0182 22.4H59.7382V23.6C59.7382 24.048 59.8236 24.3627 59.9942 24.544C60.1756 24.7147 60.4902 24.8 60.9382 24.8H62.7782C63.4182 24.8 63.7382 24.48 63.7382 23.84V23.52C63.7382 23.36 63.8182 23.28 63.9782 23.28H64.9382C65.0982 23.28 65.1782 23.36 65.1782 23.52V23.84C65.1782 24.608 64.9862 25.1733 64.6022 25.536C64.2182 25.8987 63.6102 26.08 62.7782 26.08H60.7782C59.9356 26.08 59.3116 25.8773 58.9062 25.472C58.5009 25.0667 58.2982 24.4427 58.2982 23.6V20.24C58.2982 19.3973 58.5009 18.7733 58.9062 18.368C59.3116 17.9627 59.9356 17.76 60.7782 17.76H62.7782ZM63.8182 21.12V20.24C63.8182 19.792 63.7276 19.4827 63.5462 19.312C63.3756 19.1307 63.0662 19.04 62.6182 19.04H60.9382C60.4902 19.04 60.1756 19.1307 59.9942 19.312C59.8236 19.4827 59.7382 19.792 59.7382 20.24V21.12H63.8182ZM69.4632 26.08C68.6312 26.08 68.0232 25.8987 67.6392 25.536C67.2552 25.1733 67.0632 24.608 67.0632 23.84V23.52C67.0632 23.36 67.1432 23.28 67.3032 23.28H68.2632C68.4232 23.28 68.5032 23.36 68.5032 23.52V23.68C68.5032 24.4267 68.8766 24.8 69.6232 24.8H71.3832C72.0766 24.8 72.4232 24.5067 72.4232 23.92V23.36C72.4232 23.1147 72.3379 22.9227 72.1672 22.784C71.9966 22.6347 71.7352 22.56 71.3832 22.56H69.5432C68.7219 22.56 68.1139 22.3893 67.7192 22.048C67.3352 21.7067 67.1432 21.184 67.1432 20.48V19.84C67.1432 19.1467 67.3352 18.6293 67.7192 18.288C68.1139 17.936 68.7219 17.76 69.5432 17.76H71.3832C72.2152 17.76 72.8232 17.9413 73.2072 18.304C73.5912 18.6667 73.7832 19.232 73.7832 20V20.16C73.7832 20.32 73.7032 20.4 73.5432 20.4H72.5832C72.4232 20.4 72.3432 20.32 72.3432 20.16V20C72.3432 19.6693 72.2526 19.4293 72.0712 19.28C71.8899 19.12 71.6179 19.04 71.2552 19.04H69.6232C68.9299 19.04 68.5832 19.3333 68.5832 19.92V20.4C68.5832 20.9867 68.9299 21.28 69.6232 21.28H71.5432C72.3539 21.28 72.9406 21.4453 73.3032 21.776C73.6766 22.1067 73.8632 22.608 73.8632 23.28V24C73.8632 24.6933 73.6659 25.216 73.2712 25.568C72.8872 25.9093 72.2846 26.08 71.4632 26.08H69.4632ZM80.3611 26C80.2651 26 80.1904 25.984 80.1371 25.952C80.0944 25.9093 80.0624 25.8453 80.0411 25.76L78.0411 18.192C78.0304 18.16 78.0251 18.1173 78.0251 18.064C78.0251 17.9147 78.1051 17.84 78.2651 17.84H79.1291C79.2251 17.84 79.2944 17.8613 79.3371 17.904C79.3904 17.936 79.4278 17.9947 79.4491 18.08L80.9371 23.776H81.0171L82.6811 18.08C82.7131 17.984 82.7504 17.92 82.7931 17.888C82.8464 17.856 82.9211 17.84 83.0171 17.84H83.8331C83.9291 17.84 83.9984 17.856 84.0411 17.888C84.0944 17.92 84.1371 17.984 84.1691 18.08L85.8331 23.776H85.9131L87.4011 18.08C87.4224 17.9947 87.4544 17.936 87.4971 17.904C87.5504 17.8613 87.6251 17.84 87.7211 17.84H88.5851C88.7451 17.84 88.8251 17.9147 88.8251 18.064C88.8251 18.1173 88.8198 18.16 88.8091 18.192L86.8091 25.76C86.7878 25.8453 86.7504 25.9093 86.6971 25.952C86.6544 25.984 86.5851 26 86.4891 26H85.4491C85.3531 26 85.2784 25.984 85.2251 25.952C85.1824 25.9093 85.1504 25.8453 85.1291 25.76L83.4651 20.064H83.3851L81.7211 25.76C81.6998 25.8453 81.6624 25.9093 81.6091 25.952C81.5664 25.984 81.4971 26 81.4011 26H80.3611ZM94.4626 17.76C95.3053 17.76 95.9293 17.9627 96.3346 18.368C96.7399 18.7733 96.9426 19.3973 96.9426 20.24V22.16C96.9426 22.32 96.8626 22.4 96.7026 22.4H91.4226V23.6C91.4226 24.048 91.5079 24.3627 91.6786 24.544C91.8599 24.7147 92.1746 24.8 92.6226 24.8H94.4626C95.1026 24.8 95.4226 24.48 95.4226 23.84V23.52C95.4226 23.36 95.5026 23.28 95.6626 23.28H96.6226C96.7826 23.28 96.8626 23.36 96.8626 23.52V23.84C96.8626 24.608 96.6706 25.1733 96.2866 25.536C95.9026 25.8987 95.2946 26.08 94.4626 26.08H92.4626C91.6199 26.08 90.9959 25.8773 90.5906 25.472C90.1853 25.0667 89.9826 24.4427 89.9826 23.6V20.24C89.9826 19.3973 90.1853 18.7733 90.5906 18.368C90.9959 17.9627 91.6199 17.76 92.4626 17.76H94.4626ZM95.5026 21.12V20.24C95.5026 19.792 95.4119 19.4827 95.2306 19.312C95.0599 19.1307 94.7506 19.04 94.3026 19.04H92.6226C92.1746 19.04 91.8599 19.1307 91.6786 19.312C91.5079 19.4827 91.4226 19.792 91.4226 20.24V21.12H95.5026ZM102.781 26C102.621 26 102.541 25.92 102.541 25.76V18.08C102.541 17.92 102.621 17.84 102.781 17.84H103.741C103.901 17.84 103.981 17.92 103.981 18.08V18.64H104.061C104.189 18.4053 104.403 18.2027 104.701 18.032C105 17.8507 105.373 17.76 105.821 17.76H107.261C107.421 17.76 107.501 17.84 107.501 18V18.96C107.501 19.12 107.421 19.2 107.261 19.2H105.181C104.733 19.2 104.419 19.2907 104.237 19.472C104.067 19.6427 103.981 19.952 103.981 20.4V25.76C103.981 25.92 103.901 26 103.741 26H102.781ZM112.988 17.76C113.83 17.76 114.454 17.9627 114.86 18.368C115.265 18.7733 115.468 19.3973 115.468 20.24V22.16C115.468 22.32 115.388 22.4 115.228 22.4H109.948V23.6C109.948 24.048 110.033 24.3627 110.204 24.544C110.385 24.7147 110.7 24.8 111.148 24.8H112.988C113.628 24.8 113.948 24.48 113.948 23.84V23.52C113.948 23.36 114.028 23.28 114.188 23.28H115.148C115.308 23.28 115.388 23.36 115.388 23.52V23.84C115.388 24.608 115.196 25.1733 114.812 25.536C114.428 25.8987 113.82 26.08 112.988 26.08H110.988C110.145 26.08 109.521 25.8773 109.116 25.472C108.71 25.0667 108.508 24.4427 108.508 23.6V20.24C108.508 19.3973 108.71 18.7733 109.116 18.368C109.521 17.9627 110.145 17.76 110.988 17.76H112.988ZM114.028 21.12V20.24C114.028 19.792 113.937 19.4827 113.756 19.312C113.585 19.1307 113.276 19.04 112.828 19.04H111.148C110.7 19.04 110.385 19.1307 110.204 19.312C110.033 19.4827 109.948 19.792 109.948 20.24V21.12H114.028ZM117.913 29.04C117.753 29.04 117.673 28.96 117.673 28.8V18.08C117.673 17.92 117.753 17.84 117.913 17.84H118.873C119.033 17.84 119.113 17.92 119.113 18.08V18.64H119.193C119.321 18.4053 119.529 18.2027 119.817 18.032C120.115 17.8507 120.494 17.76 120.953 17.76H122.073C122.915 17.76 123.539 17.9627 123.945 18.368C124.35 18.7733 124.553 19.3973 124.553 20.24V23.52C124.553 24.3627 124.35 24.9867 123.945 25.392C123.539 25.7973 122.915 26 122.073 26H119.113V28.8C119.113 28.96 119.033 29.04 118.873 29.04H117.913ZM121.913 24.72C122.361 24.72 122.67 24.6347 122.841 24.464C123.022 24.2827 123.113 23.968 123.113 23.52V20.24C123.113 19.792 123.022 19.4827 122.841 19.312C122.67 19.1307 122.361 19.04 121.913 19.04H120.313C119.865 19.04 119.55 19.1307 119.369 19.312C119.198 19.4827 119.113 19.792 119.113 20.24V24.72H121.913ZM130.916 17.76C131.758 17.76 132.382 17.9627 132.788 18.368C133.193 18.7733 133.396 19.3973 133.396 20.24V25.76C133.396 25.92 133.316 26 133.156 26H132.196C132.036 26 131.956 25.92 131.956 25.76V25.2H131.876C131.748 25.4347 131.534 25.6427 131.236 25.824C130.948 25.9947 130.574 26.08 130.116 26.08H128.516C127.129 26.08 126.436 25.3867 126.436 24V23.44C126.436 22.0533 127.129 21.36 128.516 21.36H131.956V20.24C131.956 19.792 131.865 19.4827 131.684 19.312C131.513 19.1307 131.204 19.04 130.756 19.04H129.076C128.702 19.04 128.436 19.12 128.276 19.28C128.116 19.44 128.036 19.7067 128.036 20.08V20.32C128.036 20.48 127.956 20.56 127.796 20.56H126.836C126.676 20.56 126.596 20.48 126.596 20.32V20.016C126.596 19.2373 126.788 18.6667 127.172 18.304C127.556 17.9413 128.164 17.76 128.996 17.76H130.916ZM130.756 24.8C131.204 24.8 131.513 24.7147 131.684 24.544C131.865 24.3627 131.956 24.048 131.956 23.6V22.64H128.756C128.436 22.64 128.206 22.7093 128.068 22.848C127.94 22.976 127.876 23.2 127.876 23.52V23.92C127.876 24.24 127.94 24.4693 128.068 24.608C128.206 24.736 128.436 24.8 128.756 24.8H130.756ZM136.075 26C135.915 26 135.835 25.92 135.835 25.76V18.08C135.835 17.92 135.915 17.84 136.075 17.84H137.035C137.195 17.84 137.275 17.92 137.275 18.08V25.76C137.275 25.92 137.195 26 137.035 26H136.075ZM135.995 16.88C135.835 16.88 135.755 16.8 135.755 16.64V15.6C135.755 15.44 135.835 15.36 135.995 15.36H137.115C137.275 15.36 137.355 15.44 137.355 15.6V16.64C137.355 16.8 137.275 16.88 137.115 16.88H135.995ZM140.031 26C139.871 26 139.791 25.92 139.791 25.76V18.08C139.791 17.92 139.871 17.84 140.031 17.84H140.991C141.151 17.84 141.231 17.92 141.231 18.08V18.64H141.311C141.439 18.4053 141.653 18.2027 141.951 18.032C142.25 17.8507 142.623 17.76 143.071 17.76H144.511C144.671 17.76 144.751 17.84 144.751 18V18.96C144.751 19.12 144.671 19.2 144.511 19.2H142.431C141.983 19.2 141.669 19.2907 141.487 19.472C141.317 19.6427 141.231 19.952 141.231 20.4V25.76C141.231 25.92 141.151 26 140.991 26H140.031Z" fill="#7E7E82"/>
<path d="M275.98 25.648C276.001 25.7333 276.012 25.7867 276.012 25.808C276.012 25.936 275.937 26 275.788 26H274.78C274.588 26 274.471 25.92 274.428 25.76L273.788 23.28H268.348L267.708 25.76C267.665 25.92 267.548 26 267.356 26H266.348C266.199 26 266.124 25.936 266.124 25.808C266.124 25.7867 266.135 25.7333 266.156 25.648L269.052 15.04C269.105 14.88 269.223 14.8 269.404 14.8H272.732C272.924 14.8 273.041 14.88 273.084 15.04L275.98 25.648ZM270.124 16.32L269.1 20.368L268.7 21.92H273.436L273.036 20.368L272.012 16.32H270.124ZM279.98 26.08C279.137 26.08 278.513 25.8773 278.108 25.472C277.702 25.0667 277.5 24.4427 277.5 23.6V20.32C277.5 19.4773 277.702 18.8533 278.108 18.448C278.513 18.0427 279.137 17.84 279.98 17.84H282.94V15.04C282.94 14.88 283.02 14.8 283.18 14.8H284.14C284.3 14.8 284.38 14.88 284.38 15.04V25.76C284.38 25.92 284.3 26 284.14 26H283.18C283.02 26 282.94 25.92 282.94 25.76V25.2H282.86C282.742 25.4347 282.534 25.6427 282.236 25.824C281.937 25.9947 281.558 26.08 281.1 26.08H279.98ZM281.74 24.8C282.188 24.8 282.497 24.7147 282.668 24.544C282.849 24.3627 282.94 24.048 282.94 23.6V19.12H280.14C279.692 19.12 279.377 19.2107 279.196 19.392C279.025 19.5627 278.94 19.872 278.94 20.32V23.6C278.94 24.048 279.025 24.3627 279.196 24.544C279.377 24.7147 279.692 24.8 280.14 24.8H281.74ZM289.139 26.08C288.296 26.08 287.672 25.8773 287.267 25.472C286.862 25.0667 286.659 24.4427 286.659 23.6V20.32C286.659 19.4773 286.862 18.8533 287.267 18.448C287.672 18.0427 288.296 17.84 289.139 17.84H292.099V15.04C292.099 14.88 292.179 14.8 292.339 14.8H293.299C293.459 14.8 293.539 14.88 293.539 15.04V25.76C293.539 25.92 293.459 26 293.299 26H292.339C292.179 26 292.099 25.92 292.099 25.76V25.2H292.019C291.902 25.4347 291.694 25.6427 291.395 25.824C291.096 25.9947 290.718 26.08 290.259 26.08H289.139ZM290.899 24.8C291.347 24.8 291.656 24.7147 291.827 24.544C292.008 24.3627 292.099 24.048 292.099 23.6V19.12H289.299C288.851 19.12 288.536 19.2107 288.355 19.392C288.184 19.5627 288.099 19.872 288.099 20.32V23.6C288.099 24.048 288.184 24.3627 288.355 24.544C288.536 24.7147 288.851 24.8 289.299 24.8H290.899ZM296.298 26C296.138 26 296.058 25.92 296.058 25.76V18.08C296.058 17.92 296.138 17.84 296.298 17.84H297.258C297.418 17.84 297.498 17.92 297.498 18.08V25.76C297.498 25.92 297.418 26 297.258 26H296.298ZM296.218 16.88C296.058 16.88 295.978 16.8 295.978 16.64V15.6C295.978 15.44 296.058 15.36 296.218 15.36H297.338C297.498 15.36 297.578 15.44 297.578 15.6V16.64C297.578 16.8 297.498 16.88 297.338 16.88H296.218ZM301.855 19.12V23.52C301.855 23.968 301.94 24.2827 302.111 24.464C302.292 24.6347 302.607 24.72 303.055 24.72H304.015C304.175 24.72 304.255 24.8 304.255 24.96V25.76C304.255 25.92 304.175 26 304.015 26H302.895C302.052 26 301.428 25.7973 301.023 25.392C300.617 24.9867 300.415 24.3627 300.415 23.52V19.12H299.135C298.975 19.12 298.895 19.04 298.895 18.88V18.08C298.895 17.92 298.975 17.84 299.135 17.84H300.415V16.56C300.415 16.4 300.495 16.32 300.655 16.32H301.615C301.775 16.32 301.855 16.4 301.855 16.56V17.84H304.015C304.175 17.84 304.255 17.92 304.255 18.08V18.88C304.255 19.04 304.175 19.12 304.015 19.12H301.855ZM306.289 26C306.129 26 306.049 25.92 306.049 25.76V18.08C306.049 17.92 306.129 17.84 306.289 17.84H307.249C307.409 17.84 307.489 17.92 307.489 18.08V25.76C307.489 25.92 307.409 26 307.249 26H306.289ZM306.209 16.88C306.049 16.88 305.969 16.8 305.969 16.64V15.6C305.969 15.44 306.049 15.36 306.209 15.36H307.329C307.489 15.36 307.569 15.44 307.569 15.6V16.64C307.569 16.8 307.489 16.88 307.329 16.88H306.209ZM312.245 26.08C311.403 26.08 310.779 25.8773 310.373 25.472C309.968 25.0667 309.765 24.4427 309.765 23.6V20.24C309.765 19.3973 309.968 18.7733 310.373 18.368C310.779 17.9627 311.403 17.76 312.245 17.76H314.485C315.328 17.76 315.952 17.9627 316.357 18.368C316.763 18.7733 316.965 19.3973 316.965 20.24V23.6C316.965 24.4427 316.763 25.0667 316.357 25.472C315.952 25.8773 315.328 26.08 314.485 26.08H312.245ZM314.325 24.8C314.773 24.8 315.083 24.7147 315.253 24.544C315.435 24.3627 315.525 24.048 315.525 23.6V20.24C315.525 19.792 315.435 19.4827 315.253 19.312C315.083 19.1307 314.773 19.04 314.325 19.04H312.405C311.957 19.04 311.643 19.1307 311.461 19.312C311.291 19.4827 311.205 19.792 311.205 20.24V23.6C311.205 24.048 311.291 24.3627 311.461 24.544C311.643 24.7147 311.957 24.8 312.405 24.8H314.325ZM319.483 26C319.323 26 319.243 25.92 319.243 25.76V18.08C319.243 17.92 319.323 17.84 319.483 17.84H320.443C320.603 17.84 320.683 17.92 320.683 18.08V18.64H320.763C320.891 18.4053 321.104 18.2027 321.403 18.032C321.701 17.8507 322.075 17.76 322.523 17.76H323.643C324.485 17.76 325.109 17.9627 325.515 18.368C325.92 18.7733 326.123 19.3973 326.123 20.24V25.76C326.123 25.92 326.043 26 325.883 26H324.923C324.763 26 324.683 25.92 324.683 25.76V20.32C324.683 19.872 324.592 19.5627 324.411 19.392C324.24 19.2107 323.931 19.12 323.483 19.12H321.883C321.435 19.12 321.12 19.2107 320.939 19.392C320.768 19.5627 320.683 19.872 320.683 20.32V25.76C320.683 25.92 320.603 26 320.443 26H319.483ZM332.798 17.76C333.641 17.76 334.265 17.9627 334.67 18.368C335.076 18.7733 335.278 19.3973 335.278 20.24V25.76C335.278 25.92 335.198 26 335.038 26H334.078C333.918 26 333.838 25.92 333.838 25.76V25.2H333.758C333.63 25.4347 333.417 25.6427 333.118 25.824C332.83 25.9947 332.457 26.08 331.998 26.08H330.398C329.012 26.08 328.318 25.3867 328.318 24V23.44C328.318 22.0533 329.012 21.36 330.398 21.36H333.838V20.24C333.838 19.792 333.748 19.4827 333.566 19.312C333.396 19.1307 333.086 19.04 332.638 19.04H330.958C330.585 19.04 330.318 19.12 330.158 19.28C329.998 19.44 329.918 19.7067 329.918 20.08V20.32C329.918 20.48 329.838 20.56 329.678 20.56H328.718C328.558 20.56 328.478 20.48 328.478 20.32V20.016C328.478 19.2373 328.67 18.6667 329.054 18.304C329.438 17.9413 330.046 17.76 330.878 17.76H332.798ZM332.638 24.8C333.086 24.8 333.396 24.7147 333.566 24.544C333.748 24.3627 333.838 24.048 333.838 23.6V22.64H330.638C330.318 22.64 330.089 22.7093 329.95 22.848C329.822 22.976 329.758 23.2 329.758 23.52V23.92C329.758 24.24 329.822 24.4693 329.95 24.608C330.089 24.736 330.318 24.8 330.638 24.8H332.638ZM337.958 26C337.798 26 337.718 25.92 337.718 25.76V15.04C337.718 14.88 337.798 14.8 337.958 14.8H338.918C339.078 14.8 339.158 14.88 339.158 15.04V25.76C339.158 25.92 339.078 26 338.918 26H337.958ZM347.068 26.08C346.236 26.08 345.628 25.8987 345.244 25.536C344.86 25.1733 344.668 24.608 344.668 23.84V23.52C344.668 23.36 344.748 23.28 344.908 23.28H345.868C346.028 23.28 346.108 23.36 346.108 23.52V23.68C346.108 24.4267 346.481 24.8 347.228 24.8H348.988C349.681 24.8 350.028 24.5067 350.028 23.92V23.36C350.028 23.1147 349.942 22.9227 349.772 22.784C349.601 22.6347 349.34 22.56 348.988 22.56H347.148C346.326 22.56 345.718 22.3893 345.324 22.048C344.94 21.7067 344.748 21.184 344.748 20.48V19.84C344.748 19.1467 344.94 18.6293 345.324 18.288C345.718 17.936 346.326 17.76 347.148 17.76H348.988C349.82 17.76 350.428 17.9413 350.812 18.304C351.196 18.6667 351.388 19.232 351.388 20V20.16C351.388 20.32 351.308 20.4 351.148 20.4H350.188C350.028 20.4 349.948 20.32 349.948 20.16V20C349.948 19.6693 349.857 19.4293 349.676 19.28C349.494 19.12 349.222 19.04 348.86 19.04H347.228C346.534 19.04 346.188 19.3333 346.188 19.92V20.4C346.188 20.9867 346.534 21.28 347.228 21.28H349.148C349.958 21.28 350.545 21.4453 350.908 21.776C351.281 22.1067 351.468 22.608 351.468 23.28V24C351.468 24.6933 351.27 25.216 350.876 25.568C350.492 25.9093 349.889 26.08 349.068 26.08H347.068ZM357.748 17.76C358.591 17.76 359.215 17.9627 359.62 18.368C360.026 18.7733 360.228 19.3973 360.228 20.24V22.16C360.228 22.32 360.148 22.4 359.988 22.4H354.708V23.6C354.708 24.048 354.794 24.3627 354.964 24.544C355.146 24.7147 355.46 24.8 355.908 24.8H357.748C358.388 24.8 358.708 24.48 358.708 23.84V23.52C358.708 23.36 358.788 23.28 358.948 23.28H359.908C360.068 23.28 360.148 23.36 360.148 23.52V23.84C360.148 24.608 359.956 25.1733 359.572 25.536C359.188 25.8987 358.58 26.08 357.748 26.08H355.748C354.906 26.08 354.282 25.8773 353.876 25.472C353.471 25.0667 353.268 24.4427 353.268 23.6V20.24C353.268 19.3973 353.471 18.7733 353.876 18.368C354.282 17.9627 354.906 17.76 355.748 17.76H357.748ZM358.788 21.12V20.24C358.788 19.792 358.698 19.4827 358.516 19.312C358.346 19.1307 358.036 19.04 357.588 19.04H355.908C355.46 19.04 355.146 19.1307 354.964 19.312C354.794 19.4827 354.708 19.792 354.708 20.24V21.12H358.788ZM362.673 26C362.513 26 362.433 25.92 362.433 25.76V18.08C362.433 17.92 362.513 17.84 362.673 17.84H363.633C363.793 17.84 363.873 17.92 363.873 18.08V18.64H363.953C364.081 18.4053 364.295 18.2027 364.593 18.032C364.892 17.8507 365.265 17.76 365.713 17.76H367.153C367.313 17.76 367.393 17.84 367.393 18V18.96C367.393 19.12 367.313 19.2 367.153 19.2H365.073C364.625 19.2 364.311 19.2907 364.129 19.472C363.959 19.6427 363.873 19.952 363.873 20.4V25.76C363.873 25.92 363.793 26 363.633 26H362.673ZM371.028 26C370.858 26 370.74 25.92 370.676 25.76L367.844 18.16C367.834 18.1387 367.828 18.1067 367.828 18.064C367.828 17.9147 367.924 17.84 368.116 17.84H368.964C369.135 17.84 369.252 17.92 369.316 18.08L370.692 21.84L371.572 24.256H371.652L372.532 21.84L373.908 18.08C373.972 17.92 374.09 17.84 374.26 17.84H375.156C375.306 17.84 375.38 17.9147 375.38 18.064C375.38 18.1173 375.375 18.16 375.364 18.192L372.548 25.76C372.484 25.92 372.367 26 372.196 26H371.028ZM376.867 26C376.707 26 376.627 25.92 376.627 25.76V18.08C376.627 17.92 376.707 17.84 376.867 17.84H377.827C377.987 17.84 378.067 17.92 378.067 18.08V25.76C378.067 25.92 377.987 26 377.827 26H376.867ZM376.787 16.88C376.627 16.88 376.547 16.8 376.547 16.64V15.6C376.547 15.44 376.627 15.36 376.787 15.36H377.907C378.067 15.36 378.147 15.44 378.147 15.6V16.64C378.147 16.8 378.067 16.88 377.907 16.88H376.787ZM382.823 26.08C381.981 26.08 381.357 25.8773 380.951 25.472C380.546 25.0667 380.343 24.4427 380.343 23.6V20.24C380.343 19.3973 380.546 18.7733 380.951 18.368C381.357 17.9627 381.981 17.76 382.823 17.76H384.663C385.506 17.76 386.13 17.9627 386.535 18.368C386.941 18.7733 387.143 19.3973 387.143 20.24V20.56C387.143 20.72 387.063 20.8 386.903 20.8H385.943C385.783 20.8 385.703 20.72 385.703 20.56V20.24C385.703 19.792 385.613 19.4827 385.431 19.312C385.261 19.1307 384.951 19.04 384.503 19.04H382.983C382.535 19.04 382.221 19.1307 382.039 19.312C381.869 19.4827 381.783 19.792 381.783 20.24V23.6C381.783 24.048 381.869 24.3627 382.039 24.544C382.221 24.7147 382.535 24.8 382.983 24.8H384.503C384.951 24.8 385.261 24.7147 385.431 24.544C385.613 24.3627 385.703 24.048 385.703 23.6V23.28C385.703 23.12 385.783 23.04 385.943 23.04H386.903C387.063 23.04 387.143 23.12 387.143 23.28V23.6C387.143 24.4427 386.941 25.0667 386.535 25.472C386.13 25.8773 385.506 26.08 384.663 26.08H382.823ZM393.42 17.76C394.263 17.76 394.887 17.9627 395.292 18.368C395.698 18.7733 395.9 19.3973 395.9 20.24V22.16C395.9 22.32 395.82 22.4 395.66 22.4H390.38V23.6C390.38 24.048 390.466 24.3627 390.636 24.544C390.818 24.7147 391.132 24.8 391.58 24.8H393.42C394.06 24.8 394.38 24.48 394.38 23.84V23.52C394.38 23.36 394.46 23.28 394.62 23.28H395.58C395.74 23.28 395.82 23.36 395.82 23.52V23.84C395.82 24.608 395.628 25.1733 395.244 25.536C394.86 25.8987 394.252 26.08 393.42 26.08H391.42C390.578 26.08 389.954 25.8773 389.548 25.472C389.143 25.0667 388.94 24.4427 388.94 23.6V20.24C388.94 19.3973 389.143 18.7733 389.548 18.368C389.954 17.9627 390.578 17.76 391.42 17.76H393.42ZM394.46 21.12V20.24C394.46 19.792 394.37 19.4827 394.188 19.312C394.018 19.1307 393.708 19.04 393.26 19.04H391.58C391.132 19.04 390.818 19.1307 390.636 19.312C390.466 19.4827 390.38 19.792 390.38 20.24V21.12H394.46ZM400.105 26.08C399.273 26.08 398.665 25.8987 398.281 25.536C397.897 25.1733 397.705 24.608 397.705 23.84V23.52C397.705 23.36 397.785 23.28 397.945 23.28H398.905C399.065 23.28 399.145 23.36 399.145 23.52V23.68C399.145 24.4267 399.519 24.8 400.265 24.8H402.025C402.719 24.8 403.065 24.5067 403.065 23.92V23.36C403.065 23.1147 402.98 22.9227 402.809 22.784C402.639 22.6347 402.377 22.56 402.025 22.56H400.185C399.364 22.56 398.756 22.3893 398.361 22.048C397.977 21.7067 397.785 21.184 397.785 20.48V19.84C397.785 19.1467 397.977 18.6293 398.361 18.288C398.756 17.936 399.364 17.76 400.185 17.76H402.025C402.857 17.76 403.465 17.9413 403.849 18.304C404.233 18.6667 404.425 19.232 404.425 20V20.16C404.425 20.32 404.345 20.4 404.185 20.4H403.225C403.065 20.4 402.985 20.32 402.985 20.16V20C402.985 19.6693 402.895 19.4293 402.713 19.28C402.532 19.12 402.26 19.04 401.897 19.04H400.265C399.572 19.04 399.225 19.3333 399.225 19.92V20.4C399.225 20.9867 399.572 21.28 400.265 21.28H402.185C402.996 21.28 403.583 21.4453 403.945 21.776C404.319 22.1067 404.505 22.608 404.505 23.28V24C404.505 24.6933 404.308 25.216 403.913 25.568C403.529 25.9093 402.927 26.08 402.105 26.08H400.105Z" fill="#7E7E82"/>
<rect x="280" width="24" height="40" fill="url(#paint0_linear_1370_328)"/>
<defs>
<linearGradient id="paint0_linear_1370_328" x1="299.967" y1="3.36103" x2="280" y2="3.36103" gradientUnits="userSpaceOnUse">
<stop offset="0.00036951" stop-color="#F8F8F8"/>
<stop offset="1" stop-color="#F8F8F8" stop-opacity="0.01"/>
</linearGradient>
</defs>
</svg>
